<svg width="20" height="19" viewBox="0 0 20 19" fill="none" xmlns="http://www.w3.org/2000/svg">
<path d="M20 7.17778V7.38889C20 7.58593 19.9433 7.74074 19.8298 7.85333L15.9574 12.3289L16.5106 18.1978V18.24C16.5106 18.4933 16.4113 18.6904 16.2128 18.8311C16.0709 18.9156 15.9149 18.9578 15.7447 18.9578C15.6028 18.9578 15.5035 18.9437 15.4468 18.9156L10 16.6356L4.55319 18.9578C4.49645 18.9859 4.41135 19 4.29787 19H4.25532C4.14184 19 4.01418 18.9578 3.87234 18.8733C3.67376 18.7326 3.57447 18.5356 3.57447 18.2822V18.24L4.04255 12.3711L0.170213 7.93778C0.0567376 7.82519 0 7.6563 0 7.43111C0 7.09333 0.184397 6.86815 0.553191 6.75556L6.34043 5.40444L9.3617 0.337778C9.50355 0.112593 9.71631 0 10 0C10.1986 0 10.383 0.112593 10.5532 0.337778L13.617 5.36222L19.4468 6.67111C19.7305 6.72741 19.9149 6.8963 20 7.17778Z" fill="#FDBB48"/>
</svg>
